<!--?xml version="1.0" standalone="no"?-->
              <svg id="sw-js-blob-svg" viewBox="0 0 100 100" xmlns="http://www.w3.org/2000/svg" version="1.1">
                    <defs> 
                        <linearGradient id="sw-gradient" x1="0" x2="1" y1="1" y2="0">
                            <stop id="stop1" stop-color="rgba(84, 58, 183, 1)" offset="0%"></stop>
                            <stop id="stop2" stop-color="rgba(0, 172, 193, 1)" offset="100%"></stop>
                        </linearGradient>
                    </defs>
                <path fill="url(#sw-gradient)" d="M20.3,-23.2C27.8,-18,36.4,-12.9,38.3,-6.1C40.3,0.7,35.6,9.3,29.9,15.6C24.3,21.9,17.6,25.9,10.1,29.2C2.7,32.6,-5.5,35.1,-14.2,34.1C-22.9,33.1,-32.1,28.5,-36.9,20.9C-41.8,13.4,-42.3,2.9,-39.6,-6.1C-37,-15.1,-31.2,-22.7,-24,-28C-16.9,-33.3,-8.5,-36.3,-1,-35.1C6.4,-33.9,12.9,-28.4,20.3,-23.2Z" width="100%" height="100%" transform="translate(50 50)" stroke-width="0" style="transition: all 0.3s ease 0s;"></path>
              </svg>