<svg xmlns="http://www.w3.org/2000/svg" version="1.1" xmlns:xlink="http://www.w3.org/1999/xlink" xmlns:svgjs="http://svgjs.dev/svgjs" viewBox="0 0 800 800" opacity="1"><defs><linearGradient gradientTransform="rotate(270)" x1="50%" y1="0%" x2="50%" y2="100%" id="sssquiggly-grad"><stop stop-color="hsl(180, 69%, 40%)" stop-opacity="1" offset="0%"></stop><stop stop-color="hsl(180, 69%, 60%)" stop-opacity="1" offset="100%"></stop></linearGradient></defs><g stroke-width="2" stroke="url(#sssquiggly-grad)" fill="none" stroke-linecap="round" transform="matrix(1,0,0,1,-5,356.99262619018555)"><path d="M10,10C35.69444444444444,10.416666666666666,79.86111111111111,15.75,133.33333333333334,12C186.80555555555557,8.25,211.11111111111114,-8.833333333333334,266.6666666666667,-8C322.22222222222223,-7.166666666666667,344.44444444444446,15.166666666666666,400,16C455.55555555555554,16.833333333333332,477.7777777777778,-5.25,533.3333333333334,-4C588.8888888888889,-2.75,611.1111111111112,20.958333333333332,666.6666666666667,22C722.2222222222223,23.041666666666668,772.2222222222223,5.375,800,1"></path><path d="M10,10C35.69444444444444,10.416666666666666,79.86111111111111,15.75,133.33333333333334,12C186.80555555555557,8.25,211.11111111111114,-8.833333333333334,266.6666666666667,-8C322.22222222222223,-7.166666666666667,344.44444444444446,15.166666666666666,400,16C455.55555555555554,16.833333333333332,477.7777777777778,-5.25,533.3333333333334,-4C588.8888888888889,-2.75,611.1111111111112,20.958333333333332,666.6666666666667,22C722.2222222222223,23.041666666666668,772.2222222222223,5.375,800,1" transform="matrix(1,0,0,1,0,72)"></path><path d="M10,10C35.69444444444444,10.416666666666666,79.86111111111111,15.75,133.33333333333334,12C186.80555555555557,8.25,211.11111111111114,-8.833333333333334,266.6666666666667,-8C322.22222222222223,-7.166666666666667,344.44444444444446,15.166666666666666,400,16C455.55555555555554,16.833333333333332,477.7777777777778,-5.25,533.3333333333334,-4C588.8888888888889,-2.75,611.1111111111112,20.958333333333332,666.6666666666667,22C722.2222222222223,23.041666666666668,772.2222222222223,5.375,800,1" transform="matrix(1,0,0,1,0,60)"></path><path d="M10,10C35.69444444444444,10.416666666666666,79.86111111111111,15.75,133.33333333333334,12C186.80555555555557,8.25,211.11111111111114,-8.833333333333334,266.6666666666667,-8C322.22222222222223,-7.166666666666667,344.44444444444446,15.166666666666666,400,16C455.55555555555554,16.833333333333332,477.7777777777778,-5.25,533.3333333333334,-4C588.8888888888889,-2.75,611.1111111111112,20.958333333333332,666.6666666666667,22C722.2222222222223,23.041666666666668,772.2222222222223,5.375,800,1" transform="matrix(1,0,0,1,0,48)"></path><path d="M10,10C35.69444444444444,10.416666666666666,79.86111111111111,15.75,133.33333333333334,12C186.80555555555557,8.25,211.11111111111114,-8.833333333333334,266.6666666666667,-8C322.22222222222223,-7.166666666666667,344.44444444444446,15.166666666666666,400,16C455.55555555555554,16.833333333333332,477.7777777777778,-5.25,533.3333333333334,-4C588.8888888888889,-2.75,611.1111111111112,20.958333333333332,666.6666666666667,22C722.2222222222223,23.041666666666668,772.2222222222223,5.375,800,1" transform="matrix(1,0,0,1,0,36)"></path><path d="M10,10C35.69444444444444,10.416666666666666,79.86111111111111,15.75,133.33333333333334,12C186.80555555555557,8.25,211.11111111111114,-8.833333333333334,266.6666666666667,-8C322.22222222222223,-7.166666666666667,344.44444444444446,15.166666666666666,400,16C455.55555555555554,16.833333333333332,477.7777777777778,-5.25,533.3333333333334,-4C588.8888888888889,-2.75,611.1111111111112,20.958333333333332,666.6666666666667,22C722.2222222222223,23.041666666666668,772.2222222222223,5.375,800,1" transform="matrix(1,0,0,1,0,24)"></path><path d="M10,10C35.69444444444444,10.416666666666666,79.86111111111111,15.75,133.33333333333334,12C186.80555555555557,8.25,211.11111111111114,-8.833333333333334,266.6666666666667,-8C322.22222222222223,-7.166666666666667,344.44444444444446,15.166666666666666,400,16C455.55555555555554,16.833333333333332,477.7777777777778,-5.25,533.3333333333334,-4C588.8888888888889,-2.75,611.1111111111112,20.958333333333332,666.6666666666667,22C722.2222222222223,23.041666666666668,772.2222222222223,5.375,800,1" transform="matrix(1,0,0,1,0,12)"></path></g></svg>