<svg xmlns="http://www.w3.org/2000/svg" version="1.1" xmlns:xlink="http://www.w3.org/1999/xlink" xmlns:svgjs="http://svgjs.dev/svgjs" viewBox="0 0 2400 800" opacity="1"><defs><linearGradient x1="50%" y1="0%" x2="50%" y2="100%" id="sssurf-grad"><stop stop-color="rgba(84, 58, 183, 1.00)" stop-opacity="1" offset="0%"></stop><stop stop-color="rgba(0, 172, 193, 1.00)" stop-opacity="1" offset="100%"></stop></linearGradient></defs><g fill="url(#sssurf-grad)" transform="matrix(1,0,0,1,0,-132.99942016601562)"><path d="M 0 318.7576778134965 Q 400 450 400 318.1573847647103 Q 800 450 800 317.9988281036751 Q 1200 450 1200 323.0534070058638 Q 1600 450 1600 320.5238279700127 Q 2000 450 2000 322.8155433268057 Q 2400 450 2400 319.7527630016322 L 2400 800 L 0 800 L 0 318.9632166421625 Z" transform="matrix(1,0,0,1,0,87)" opacity="0.05"></path><path d="M 0 318.7576778134965 Q 400 450 400 318.1573847647103 Q 800 450 800 317.9988281036751 Q 1200 450 1200 323.0534070058638 Q 1600 450 1600 320.5238279700127 Q 2000 450 2000 322.8155433268057 Q 2400 450 2400 319.7527630016322 L 2400 800 L 0 800 L 0 318.9632166421625 Z" transform="matrix(1,0,0,1,0,174)" opacity="0.53"></path><path d="M 0 318.7576778134965 Q 400 450 400 318.1573847647103 Q 800 450 800 317.9988281036751 Q 1200 450 1200 323.0534070058638 Q 1600 450 1600 320.5238279700127 Q 2000 450 2000 322.8155433268057 Q 2400 450 2400 319.7527630016322 L 2400 800 L 0 800 L 0 318.9632166421625 Z" transform="matrix(1,0,0,1,0,261)" opacity="1.00"></path></g></svg>